PathFileType	4	(X/Y/Z)	./resultDataOpenSim/trcMotMarkerGrf/sub10/qtm-05-03.trc
DataRate	CameraRate	NumFrames	NumMarkers	Units	OrigDataRate	OrigDataStartFrame	OrigNumFrames
250.000000	250.000000	11	24	m	250.000000	129	513
Frame#	Time	L.Toe.Tip			R.Toe.Tip			L.Ankle.Lat			R.Ankle.Lat			L.Ankle.Med			R.Ankle.Med			L.Heel			R.Heel			L.Knee.Lat			R.Knee.Lat			L.Knee.Med			R.Knee.Med			L.Thigh.Upper			R.Thigh.Upper			L.ASIS			R.ASIS			V.Sacral			L.Acromium			R.Acromium			C7			L.Elbow			R.Elbow			L.Wrist.Lat			R.Wrist.Lat
		X1	Y1	Z1	X2	Y2	Z2	X3	Y3	Z3	X4	Y4	Z4	X5	Y5	Z5	X6	Y6	Z6	X7	Y7	Z7	X8	Y8	Z8	X9	Y9	Z9	X10	Y10	Z10	X11	Y11	Z11	X12	Y12	Z12	X13	Y13	Z13	X14	Y14	Z14	X15	Y15	Z15	X16	Y16	Z16	X17	Y17	Z17	X18	Y18	Z18	X19	Y19	Z19	X20	Y20	Z20	X21	Y21	Z21	X22	Y22	Z22	X23	Y23	Z23	X24	Y24	Z24

129	0.512	-0.38214122	0.069823709	-0.1771626	-0.75394241	0.039342001	-0.023049298	-0.51319321	0.10119574	-0.18192702	-0.89853767	0.05530729	0.0035275404	-0.49183594	0.12312853	-0.10025477	-0.87229723	0.079775605	-0.081567399	-0.56885275	0.071708685	-0.12340325	-0.94505227	0.03136072	-0.04714023	-0.46637342	0.49010436	-0.21651197	-0.76932351	0.43874384	0.045151047	-0.44088517	0.46988066	-0.097779823	-0.75489877	0.4415857	-0.084073957	-0.63506071	0.83021804	-0.27263048	-0.71891838	0.85111048	0.10383554	-0.59551085	0.93452663	-0.19757498	-0.62879942	0.93780269	0.043997743	-0.80941584	0.95574168	-0.10814475	-0.66577287	1.4109077	-0.24225207	-0.68502596	1.4095066	0.079982828	-0.75563644	1.4360613	-0.087077711	-0.79611521	1.0981834	-0.32081562	-0.71608913	1.0546025	0.1404456	-0.69191254	0.87549575	-0.33128194	-0.52007456	0.90191137	0.14967309
130	0.516	-0.36366173	0.069041332	-0.1746136	-0.7539452	0.03933871	-0.0230701	-0.49560864	0.098138036	-0.180792	-0.89800604	0.055406925	0.0034672464	-0.47506648	0.12118836	-0.099062918	-0.8721513	0.079749698	-0.081700999	-0.55079123	0.068017427	-0.12247504	-0.94506905	0.031446485	-0.047307785	-0.45977811	0.48857643	-0.2164937	-0.7670554	0.43813515	0.045069888	-0.43421924	0.46895808	-0.097681503	-0.75251162	0.44107856	-0.084140031	-0.62859294	0.82931103	-0.27245194	-0.71476597	0.85025774	0.10393663	-0.58916131	0.93317705	-0.19723617	-0.62393618	0.93663661	0.044301359	-0.80331581	0.95455954	-0.10844149	-0.66042807	1.4095286	-0.24212988	-0.67936074	1.4083742	0.080139199	-0.75004035	1.4348145	-0.086804879	-0.79098801	1.0973756	-0.32002869	-0.70871247	1.0532075	0.14116926	-0.68912626	0.87404784	-0.33219712	-0.51056657	0.90294995	0.14892561
131	0.52	-0.34527079	0.068145163	-0.17187466	-0.75394633	0.039329434	-0.023082635	-0.47801063	0.095238695	-0.17970234	-0.89661005	0.055576395	0.0034562532	-0.45840028	0.11938005	-0.098032897	-0.87200598	0.079714968	-0.081833399	-0.53287158	0.064637917	-0.1216976	-0.9450796	0.03153659	-0.047453318	-0.45323802	0.48685137	-0.21651329	-0.76479521	0.4374758	0.044974798	-0.42773401	0.46782611	-0.097633113	-0.75018934	0.44050634	-0.084266207	-0.62201047	0.82831488	-0.27224595	-0.71051089	0.84935916	0.1039607	-0.58272556	0.9317579	-0.19687119	-0.61904223	0.93544868	0.044604051	-0.79734074	0.95322722	-0.10906412	-0.65509494	1.4080975	-0.24202308	-0.67368207	1.407172	0.080296839	-0.74446282	1.4335013	-0.086608008	-0.78593619	1.0964904	-0.31932092	-0.70132641	1.0517516	0.14188463	-0.68631184	0.8725618	-0.33309838	-0.5011038	0.9039437	0.14816665
132	0.524	-0.32700171	0.067125892	-0.16894957	-0.75395604	0.039298502	-0.023085692	-0.46042497	0.092511193	-0.17866947	-0.89458702	0.055795089	0.0034770078	-0.44181936	0.11773512	-0.097189577	-0.87185881	0.079672749	-0.081967583	-0.51525863	0.06176694	-0.12102251	-0.94508398	0.031633637	-0.047570793	-0.44675068	0.48492985	-0.21655868	-0.76251406	0.43678493	0.044867954	-0.42140922	0.46649191	-0.097617026	-0.74777308	0.43988238	-0.084410647	-0.61519502	0.82724688	-0.27198346	-0.70613819	0.84839516	0.10390092	-0.57621594	0.93027267	-0.1964871	-0.61411921	0.93424168	0.044912318	-0.79140582	0.9517512	-0.10983772	-0.6497055	1.4066167	-0.24191359	-0.6679862	1.4059105	0.080456334	-0.73902507	1.4321206	-0.086686461	-0.78126828	1.0955288	-0.31911899	-0.69393344	1.0502357	0.14259329	-0.68346582	0.87103319	-0.33398351	-0.49169043	0.90489587	0.14739813
133	0.528	-0.30888937	0.065979945	-0.1658553	-0.7539805	0.039234237	-0.023076699	-0.44289033	0.089961778	-0.17771782	-0.89273856	0.05599933	0.0034821925	-0.42529244	0.11628304	-0.096556955	-0.87170845	0.079627229	-0.082102086	-0.49809955	0.059543714	-0.12041245	-0.94508587	0.031742383	-0.047672943	-0.4403148	0.48282548	-0.216612	-0.76015729	0.43608557	0.044758415	-0.4152032	0.46496674	-0.097599858	-0.74506363	0.4392371	-0.084521333	-0.60824314	0.82609364	-0.27166753	-0.70167944	0.8473689	0.10378164	-0.56965429	0.92871964	-0.1960972	-0.60917682	0.93301397	0.045228923	-0.78544391	0.95016221	-0.11062956	-0.64418654	1.4050804	-0.2417826	-0.66228305	1.4045894	0.080618328	-0.73385303	1.4306782	-0.087219837	-0.7768948	1.094494	-0.31930912	-0.68653484	1.0486613	0.14329398	-0.68058477	0.86946472	-0.3348519	-0.48233142	0.90581432	0.14661885
134	0.532	-0.29096841	0.064710435	-0.16262123	-0.75401988	0.039147309	-0.023053507	-0.4254438	0.087597539	-0.17686996	-0.89173489	0.056137428	0.0034275022	-0.4088461	0.11499414	-0.096090848	-0.87155595	0.07958289	-0.082231637	-0.48129348	0.057833688	-0.11988724	-0.94508938	0.031865813	-0.047782665	-0.43392442	0.48055574	-0.21664981	-0.75770574	0.43538098	0.044659566	-0.40908255	0.46325247	-0.097555308	-0.74206863	0.43856791	-0.084579673	-0.6013927	0.82482117	-0.2713284	-0.69716533	0.84630202	0.10361919	-0.56305628	0.92709871	-0.19570311	-0.60422199	0.93176209	0.045550529	-0.77942226	0.94849631	-0.11139001	-0.63856437	1.4034842	-0.24164011	-0.65658018	1.4032011	0.080781166	-0.72890641	1.4291821	-0.088093989	-0.77257051	1.0933888	-0.31958747	-0.67913056	1.0470289	0.14397949	-0.67766383	0.86786337	-0.33570768	-0.47303156	0.90670796	0.14582616
135	0.536	-0.27326996	0.063342228	-0.15927922	-0.75406791	0.039069208	-0.023013683	-0.40812059	0.085426038	-0.1761386	-0.89182295	0.056189725	0.0032849625	-0.3925641	0.11377427	-0.095664019	-0.87140277	0.079541798	-0.082351971	-0.46448085	0.056232665	-0.11950938	-0.94509479	0.032003767	-0.047927581	-0.42756465	0.47814171	-0.21665474	-0.75517765	0.43465689	0.044576448	-0.40303857	0.46134108	-0.097474625	-0.73902882	0.43782435	-0.084617712	-0.59475699	0.82341206	-0.27098612	-0.69261773	0.84520886	0.10343424	-0.55642562	0.92541545	-0.19529074	-0.59925441	0.93048421	0.045874333	-0.77333787	0.94678603	-0.11211904	-0.63296625	1.4018281	-0.24151852	-0.65087455	1.4017421	0.080942309	-0.72388245	1.4276336	-0.088916988	-0.76815419	1.0922167	-0.31979001	-0.67171544	1.0453382	0.14463531	-0.67469782	0.86623078	-0.3365509	-0.46379519	0.9075748	0.1450214
136	0.54	-0.25582788	0.061923323	-0.1558665	-0.75411754	0.039021031	-0.02295665	-0.39095578	0.08344908	-0.1755284	-0.89301327	0.056155977	0.0030450371	-0.37651919	0.11254576	-0.095184226	-0.87125039	0.079502421	-0.082462658	-0.44739369	0.054399443	-0.11935396	-0.94509855	0.032152766	-0.048129518	-0.42121756	0.47561219	-0.21662029	-0.75260627	0.43389603	0.044500799	-0.39706909	0.45922666	-0.097355782	-0.73613211	0.43695899	-0.084672975	-0.58824778	0.82187715	-0.27063309	-0.68809293	0.8440963	0.10329792	-0.54975226	0.92367716	-0.1948526	-0.59426826	0.92917994	0.046201194	-0.76720485	0.94505485	-0.11282476	-0.62747876	1.4001118	-0.24143227	-0.64516076	1.4002149	0.081096574	-0.7184313	1.4260193	-0.089424238	-0.76361607	1.0909829	-0.31983857	-0.66428219	1.0435883	0.14524683	-0.67168377	0.86456391	-0.33737641	-0.45462631	0.90839807	0.14421295
137	0.544	-0.23868283	0.060503281	-0.15243036	-0.7541661	0.038997996	-0.022885963	-0.37398525	0.081662627	-0.17504068	-0.8949235	0.056070625	0.0027394401	-0.36073349	0.11132373	-0.094693392	-0.87109899	0.079460794	-0.082565879	-0.43018422	0.052382107	-0.11955125	-0.94509683	0.032307013	-0.048384477	-0.41488368	0.47299218	-0.21653145	-0.75001743	0.43308808	0.044421418	-0.39116192	0.45691256	-0.097195163	-0.73334198	0.43597083	-0.084748455	-0.58172584	0.82023628	-0.27025312	-0.68372401	0.84299344	0.10336385	-0.54301269	0.92188956	-0.19439851	-0.58925922	0.92785174	0.046531134	-0.76102666	0.94330565	-0.11350194	-0.62207126	1.3983365	-0.24136688	-0.63943528	1.3986233	0.081236438	-0.71254661	1.4243282	-0.089642654	-0.75897112	1.0896928	-0.31968353	-0.65684074	1.0417788	0.14582457	-0.668619	0.86286237	-0.33818229	-0.4455275	0.90916035	0.14340761
138	0.548	-0.22188024	0.05911314	-0.14901592	-0.75421477	0.038985272	-0.022805318	-0.35724612	0.080066428	-0.17468178	-0.89663609	0.05601037	0.0024404125	-0.34520463	0.1101957	-0.094319325	-0.87094442	0.079414105	-0.082664539	-0.41332473	0.050542694	-0.12028248	-0.94508764	0.032461909	-0.04866018	-0.40858444	0.47029085	-0.21635823	-0.74742117	0.43223209	0.044335611	-0.38530058	0.45440806	-0.096988332	-0.730514	0.43489453	-0.084820893	-0.57511509	0.81850048	-0.26983701	-0.67964882	0.84194566	0.10378171	-0.53618207	0.92005986	-0.19393825	-0.58422811	0.926506	0.046861039	-0.75474961	0.94150305	-0.11412436	-0.61666715	1.3965073	-0.24130557	-0.6336999	1.3969693	0.081360626	-0.70661179	1.4225705	-0.089667472	-0.75425928	1.0883484	-0.31937678	-0.64944668	1.0399082	0.14644512	-0.66550163	0.86112848	-0.33897316	-0.43649744	0.90985806	0.14260374
139	0.552	-0.20547208	0.057762389	-0.14565424	-0.75426485	0.038972853	-0.022714169	-0.34078042	0.078670712	-0.1744715	-0.89722715	0.056048088	0.0022113614	-0.32994524	0.10923022	-0.09415646	-0.8707803	0.079364239	-0.082761929	-0.39715878	0.049165879	-0.12158116	-0.94507134	0.032616755	-0.048923145	-0.40233113	0.46751141	-0.21608541	-0.74482411	0.43133039	0.044244006	-0.37947424	0.45172441	-0.096731916	-0.72755104	0.43376567	-0.084867816	-0.56840184	0.81667004	-0.26938167	-0.67580209	0.84095599	0.1044616	-0.52926154	0.91819752	-0.19346976	-0.57918173	0.92514701	0.047188437	-0.74824686	0.93957718	-0.11467091	-0.6112257	1.3946281	-0.24124358	-0.6279643	1.3952513	0.081477106	-0.70096338	1.4207631	-0.089554417	-0.74951605	1.0869472	-0.31901581	-0.64220461	1.0379751	0.14726563	-0.6623504	0.85936123	-0.33976296	-0.42753121	0.91049902	0.14179658
